<svg width="174" height="42" viewBox="0 0 174 42" fill="none" xmlns="http://www.w3.org/2000/svg">
<path d="M31.5106 20.5533C31.9938 20.5533 32.4671 20.6957 32.8664 20.9656C33.6059 21.4613 33.8721 22.1582 33.8771 23.0072C35.1539 23.9005 36.6576 24.5238 38.2746 24.7741V20.6957C35.4744 19.9889 33.3939 17.4565 33.3939 14.4578C33.3939 11.4591 35.4744 8.94141 38.2746 8.23959V4.15137C33.2411 4.91699 29.3809 9.24079 29.3809 14.4529C29.3809 16.7301 30.1204 18.8454 31.3677 20.5582C31.417 20.5533 31.4613 20.5533 31.5057 20.5533H31.5106Z" fill="#F15B2D"/>
<path d="M47.9278 23.5472C47.9327 23.3804 47.9376 23.2086 47.9376 23.0368C47.9376 23.0024 47.9376 22.9632 47.9376 22.9288V4.03369H39.877V8.03848H43.8851V12.642H39.877V16.2836H43.8851V20.8872H39.877V24.892H43.7372C43.6386 25.4318 43.5105 25.957 43.3527 26.4674C43.2541 26.752 43.1555 27.0367 43.0372 27.3115C42.4653 28.6759 41.6469 29.9127 40.6215 30.9482C38.7826 32.8377 36.2978 34.104 33.5321 34.3886V24.8036H29.4746V34.4524H27.7935V4.03369H23.7361V34.4524H21.6457C21.9563 33.4659 22.1289 32.4206 22.1338 31.3359V31.3114C22.1338 27.8465 20.428 24.7791 17.8102 22.8847C20.4231 21.005 22.1338 17.9228 22.1338 14.453C22.1338 8.70104 17.4306 4.03369 11.6427 4.03369H3.57715V22.9239C3.57715 23.1055 3.57715 23.2822 3.58701 23.454C3.58701 23.508 3.59194 23.557 3.59687 23.6061C3.6018 23.719 3.60673 23.8319 3.61166 23.9398C3.61166 23.9595 3.61166 23.9791 3.61166 23.9987C3.62152 24.1165 3.63138 24.2343 3.64124 24.3521C3.64124 24.3717 3.64124 24.3914 3.64617 24.411C3.6511 24.4748 3.66096 24.5386 3.67082 24.6024C3.68068 24.6956 3.69054 24.7938 3.70533 24.892C3.79407 25.5791 3.92225 26.2416 4.08987 26.8894C4.73571 29.3041 5.95343 31.4881 7.58527 33.2942C9.94676 35.9051 13.1858 37.7161 16.8291 38.2707C17.5982 38.3885 18.3821 38.4474 19.1807 38.4474H25.7327H32.3341C40.2616 38.4474 46.8235 32.5138 47.8095 24.8871C47.8292 24.7545 47.844 24.6171 47.8588 24.4846C47.8637 24.4159 47.8736 24.3472 47.8785 24.2736C47.8785 24.2441 47.8883 24.2098 47.8883 24.1803C47.8883 24.146 47.8883 24.1067 47.8933 24.0724C47.9081 23.9055 47.9179 23.7386 47.9228 23.5718C47.9228 23.5619 47.9228 23.5472 47.9228 23.5374L47.9278 23.5472ZM7.58527 8.03848H11.6427C15.212 8.03848 18.1208 10.9096 18.1208 14.453C18.1208 17.9965 15.217 20.8872 11.6427 20.8872H7.58527V8.03848ZM8.7882 28.0133C8.36422 27.1692 8.04869 26.2662 7.84656 25.3239C7.81698 25.1864 7.7874 25.0343 7.76768 24.8969H11.6476C15.212 24.8969 18.1109 27.7532 18.1208 31.2918V31.3163C18.1208 32.4009 17.8496 33.4218 17.3714 34.315C13.595 33.7211 10.425 31.3065 8.7882 28.0133Z" fill="#F15B2D"/>
<path d="M33.5369 23.2134C33.5418 23.1742 33.5418 22.919 33.5418 22.8748C33.5418 21.7607 32.6347 20.8577 31.5106 20.8577C31.3331 20.8577 31.1557 20.8822 30.993 20.9264C30.1253 21.157 29.4844 21.9423 29.4844 22.8797C29.4844 22.9239 29.4844 23.1791 29.4893 23.2183H30.2387C30.2387 23.2183 30.2337 22.9239 30.2337 22.8895C30.2337 22.7226 30.2633 22.5558 30.3274 22.4036C30.4556 22.0895 30.712 21.8343 31.0225 21.7018C31.1803 21.638 31.3479 21.6037 31.5156 21.6037C31.5402 21.6037 31.5649 21.6037 31.5895 21.6037C32.2008 21.638 32.6988 22.0944 32.7875 22.6834C32.8122 22.8502 32.8072 23.0416 32.7974 23.2134H33.5467H33.5369Z" fill="#F15B2D"/>
<path d="M59.2032 33.8242C59.0898 33.6573 58.9222 33.5297 58.7102 33.4365C58.4982 33.3432 58.2615 33.2941 58.0101 33.2892C57.6798 33.2892 57.4136 33.353 57.2065 33.4856C56.9995 33.6181 56.8959 33.7947 56.8959 34.0156C56.8959 34.2266 56.9945 34.3788 57.1967 34.4769C57.3988 34.5751 57.6847 34.6487 58.0693 34.7027C58.3552 34.742 58.5968 34.791 58.7989 34.845C59.0011 34.899 59.1983 34.9824 59.3955 35.0904C59.5927 35.1984 59.7455 35.3456 59.849 35.5272C59.9526 35.7137 60.0019 35.9346 60.0019 36.1898C60.0019 36.5333 59.9032 36.818 59.7011 37.0486C59.499 37.2793 59.2574 37.4364 58.9715 37.5296C58.6855 37.6228 58.3602 37.6719 58.0052 37.6719C57.0192 37.6719 56.329 37.3087 55.9346 36.5824L56.5114 36.1996C56.822 36.7247 57.3248 36.9897 58.0101 36.9897C58.2221 36.9897 58.4144 36.9652 58.5869 36.921C58.7595 36.8769 58.9123 36.7885 59.0356 36.6658C59.1637 36.5382 59.2229 36.3861 59.2229 36.1947C59.2229 35.9542 59.1144 35.7726 58.8975 35.6548C58.6806 35.537 58.3799 35.4536 57.9904 35.4045C57.7685 35.3751 57.5812 35.3456 57.4234 35.3064C57.2657 35.272 57.0981 35.218 56.9255 35.1493C56.753 35.0806 56.61 34.9972 56.5015 34.9039C56.3931 34.8058 56.3043 34.6831 56.2353 34.5309C56.1663 34.3788 56.1268 34.2021 56.1268 34.0058C56.1268 33.7702 56.1811 33.5592 56.2945 33.3776C56.4029 33.196 56.5508 33.0488 56.7332 32.9457C56.9156 32.8426 57.1128 32.7641 57.3248 32.7101C57.5368 32.6561 57.7538 32.6316 57.9855 32.6316C58.8433 32.6316 59.4448 32.9015 59.7849 33.4414L59.1983 33.834L59.2032 33.8242Z" fill="#F15B2D"/>
<path d="M64.5622 32.7936L62.3536 35.0807L64.7545 37.5149V37.564H63.7882L61.6387 35.3751V37.564H60.8696V32.7642H61.6387V34.8353L63.6009 32.7642H64.5573V32.7936H64.5622Z" fill="#F15B2D"/>
<path d="M65.3359 37.564V32.7642H66.1001V37.564H65.3359Z" fill="#F15B2D"/>
<path d="M68.0821 32.7642V36.8475H70.6211V37.5591H67.3081V32.7593H68.0772L68.0821 32.7642Z" fill="#F15B2D"/>
<path d="M72.1246 32.7642V36.8475H74.6636V37.5591H71.3506V32.7593H72.1197L72.1246 32.7642Z" fill="#F15B2D"/>
<path d="M78.2085 33.4562H76.626V32.7642H80.5651V33.4562H78.9875V37.564H78.2085V33.4562Z" fill="#F15B2D"/>
<path d="M85.2833 33.412C85.7122 33.8979 85.9242 34.4917 85.9242 35.1837C85.9242 35.5126 85.8749 35.8267 85.7713 36.1211C85.6678 36.4156 85.5199 36.6806 85.3227 36.9113C85.1255 37.142 84.8692 37.3285 84.5487 37.461C84.2282 37.5935 83.8634 37.6622 83.4592 37.6622C83.0549 37.6622 82.695 37.5935 82.3696 37.4511C82.0492 37.3137 81.7928 37.1272 81.5956 36.8917C81.3984 36.661 81.2505 36.396 81.147 36.1064C81.0434 35.8168 80.9941 35.5076 80.9941 35.1837C80.9941 34.4525 81.2259 33.8488 81.6893 33.3776C82.1527 32.9065 82.7492 32.666 83.4739 32.666C84.2529 32.666 84.8593 32.9163 85.2833 33.4022V33.412ZM81.8618 35.8316C81.9308 36.0328 82.0294 36.2242 82.1626 36.3911C82.2957 36.5628 82.4732 36.7003 82.695 36.8033C82.9169 36.9064 83.1683 36.9555 83.4542 36.9555C84.0212 36.9555 84.4452 36.7886 84.7262 36.45C85.0072 36.1113 85.1551 35.6941 85.1551 35.1935C85.1551 34.8844 85.1009 34.5948 84.9875 34.3298C84.8741 34.0647 84.6867 33.839 84.4205 33.6525C84.1592 33.466 83.8388 33.3727 83.469 33.3678C82.9267 33.3678 82.5077 33.5347 82.2069 33.8733C81.9062 34.212 81.7583 34.6488 81.7583 35.1886C81.7583 35.4095 81.7977 35.6205 81.8668 35.8217L81.8618 35.8316Z" fill="#F15B2D"/>
<path d="M88.6649 32.7642C89.0593 32.7642 89.4143 32.8329 89.7298 32.9605C90.0453 33.093 90.2967 33.2746 90.489 33.5003C90.6813 33.7261 90.8242 33.9764 90.9278 34.2512C91.0264 34.5261 91.0806 34.8156 91.0855 35.1199C91.0954 35.4291 91.051 35.7285 90.9574 36.0131C90.8588 36.2978 90.7158 36.5579 90.5284 36.7935C90.3362 37.0242 90.0798 37.2107 89.7594 37.353C89.4389 37.4904 89.0741 37.564 88.6698 37.564H86.8457V32.7642H88.6698H88.6649ZM87.6049 36.8229H88.6649C89.2171 36.8229 89.6312 36.6561 89.9122 36.3174C90.1932 35.9788 90.3263 35.5813 90.3165 35.115C90.3066 34.8304 90.2474 34.5702 90.139 34.3347C90.0305 34.0991 89.8481 33.8979 89.5917 33.7359C89.3354 33.574 89.0297 33.4954 88.6649 33.4954H87.6049V36.818V36.8229Z" fill="#F15B2D"/>
<path d="M95.3502 36.553H92.7422L92.2886 37.5591H91.4702L93.6345 32.7593H94.4726L96.6369 37.5591H95.8185L95.3551 36.553H95.3502ZM94.0486 33.574L93.0281 35.8561H95.0642L94.0437 33.574H94.0486Z" fill="#F15B2D"/>
<path d="M99.0479 34.8843L100.418 32.7642H101.345V32.7985L99.4324 35.596V37.564H98.6633V35.596L96.8047 32.7985V32.7642H97.7217L99.0528 34.8843H99.0479Z" fill="#F15B2D"/>
<path d="M102.696 37.289C102.696 37.289 102.691 37.3234 102.681 37.3479C102.676 37.3724 102.666 37.397 102.656 37.4215C102.647 37.451 102.637 37.4902 102.617 37.5393C102.597 37.5884 102.583 37.6424 102.563 37.6964C102.543 37.7503 102.513 37.824 102.484 37.9172C102.454 38.0154 102.42 38.1135 102.385 38.2117H101.956L102.109 37.5589C101.917 37.5246 101.818 37.4068 101.818 37.2154C101.818 37.1172 101.848 37.0289 101.907 36.9602C101.966 36.8915 102.04 36.8473 102.129 36.8326C102.218 36.8179 102.302 36.8179 102.385 36.8326C102.469 36.8473 102.543 36.8915 102.602 36.9651C102.661 37.0387 102.691 37.127 102.691 37.2301C102.691 37.2448 102.691 37.2596 102.691 37.2743L102.696 37.289Z" fill="#F15B2D"/>
<path d="M106.206 32.7642V36.8475H108.745V37.5591H105.432V32.7593H106.201L106.206 32.7642Z" fill="#F15B2D"/>
<path d="M113.039 37.564H109.479V32.7642H113.019V33.5102H110.254V34.8058H112.911V35.5175H110.254V36.8082H113.044V37.564H113.039Z" fill="#F15B2D"/>
<path d="M117.373 36.553H114.765L114.311 37.5591H113.493L115.657 32.7593H116.495L118.659 37.5591H117.841L117.378 36.553H117.373ZM116.071 33.574L115.051 35.8561H117.087L116.066 33.574H116.071Z" fill="#F15B2D"/>
<path d="M121.149 32.7642C121.544 32.7642 121.899 32.8329 122.214 32.9605C122.53 33.093 122.781 33.2746 122.973 33.5003C123.166 33.7261 123.309 33.9764 123.412 34.2512C123.511 34.5261 123.565 34.8156 123.57 35.1199C123.58 35.4291 123.535 35.7285 123.442 36.0131C123.343 36.2978 123.2 36.5579 123.013 36.7935C122.821 37.0242 122.564 37.2107 122.244 37.353C121.923 37.4904 121.558 37.564 121.154 37.564H119.33V32.7642H121.154H121.149ZM120.089 36.8229H121.149C121.701 36.8229 122.116 36.6561 122.397 36.3174C122.678 35.9788 122.811 35.5813 122.801 35.115C122.791 34.8304 122.732 34.5702 122.623 34.3347C122.515 34.0991 122.332 33.8979 122.076 33.7359C121.82 33.574 121.514 33.4954 121.149 33.4954H120.089V36.818V36.8229Z" fill="#F15B2D"/>
<path d="M127.302 33.4562H125.72V32.7642H129.659V33.4562H128.081V37.564H127.302V33.4562Z" fill="#F15B2D"/>
<path d="M134.376 33.412C134.805 33.8979 135.017 34.4917 135.017 35.1837C135.017 35.5126 134.968 35.8267 134.864 36.1211C134.761 36.4156 134.613 36.6806 134.415 36.9113C134.218 37.142 133.962 37.3285 133.641 37.461C133.321 37.5935 132.956 37.6622 132.552 37.6622C132.148 37.6622 131.788 37.5935 131.462 37.4511C131.142 37.3137 130.886 37.1272 130.688 36.8917C130.491 36.661 130.343 36.396 130.24 36.1064C130.136 35.8168 130.087 35.5076 130.087 35.1837C130.087 34.4525 130.319 33.8488 130.782 33.3776C131.245 32.9065 131.842 32.666 132.567 32.666C133.346 32.666 133.952 32.9163 134.376 33.4022V33.412ZM130.955 35.8316C131.024 36.0328 131.122 36.2242 131.255 36.3911C131.388 36.5628 131.566 36.7003 131.788 36.8033C132.01 36.9064 132.261 36.9555 132.547 36.9555C133.114 36.9555 133.538 36.7886 133.819 36.45C134.1 36.1113 134.248 35.6941 134.248 35.1935C134.248 34.8844 134.194 34.5948 134.08 34.3298C133.967 34.0647 133.78 33.839 133.513 33.6525C133.252 33.466 132.932 33.3727 132.562 33.3678C132.019 33.3678 131.6 33.5347 131.3 33.8733C130.999 34.212 130.851 34.6488 130.851 35.1886C130.851 35.4095 130.891 35.6205 130.96 35.8217L130.955 35.8316Z" fill="#F15B2D"/>
<path d="M140.125 33.888L138.488 36.1554H138.321L136.704 33.888V37.5689H135.935V32.769H136.827L138.419 35.0168L140.002 32.769H140.899V37.5689H140.125V33.888Z" fill="#F15B2D"/>
<path d="M146.105 33.412C146.533 33.8979 146.745 34.4917 146.745 35.1837C146.745 35.5126 146.696 35.8267 146.593 36.1211C146.489 36.4156 146.341 36.6806 146.144 36.9113C145.947 37.142 145.69 37.3285 145.37 37.461C145.05 37.5935 144.685 37.6622 144.28 37.6622C143.876 37.6622 143.516 37.5935 143.191 37.4511C142.87 37.3137 142.614 37.1272 142.417 36.8917C142.22 36.661 142.072 36.396 141.968 36.1064C141.865 35.8168 141.815 35.5076 141.815 35.1837C141.815 34.4525 142.047 33.8488 142.511 33.3776C142.974 32.9065 143.571 32.666 144.295 32.666C145.074 32.666 145.681 32.9163 146.105 33.4022V33.412ZM142.688 35.8316C142.757 36.0328 142.856 36.2242 142.989 36.3911C143.122 36.5628 143.299 36.7003 143.521 36.8033C143.743 36.9064 143.995 36.9555 144.28 36.9555C144.847 36.9555 145.271 36.7886 145.552 36.45C145.838 36.1162 145.981 35.6941 145.981 35.1935C145.981 34.8844 145.927 34.5948 145.814 34.3298C145.7 34.0647 145.513 33.839 145.247 33.6525C144.985 33.466 144.665 33.3727 144.295 33.3678C143.753 33.3678 143.334 33.5347 143.033 33.8733C142.732 34.212 142.585 34.6488 142.585 35.1886C142.585 35.4095 142.624 35.6205 142.693 35.8217L142.688 35.8316Z" fill="#F15B2D"/>
<path d="M151.824 37.564H150.922L149.458 35.9052H148.437V37.564H147.668V32.7593C147.914 32.7593 148.289 32.7593 148.792 32.7593C149.295 32.7593 149.665 32.7593 149.916 32.7593C150.449 32.7593 150.868 32.9114 151.168 33.2206C151.469 33.5298 151.617 33.8979 151.617 34.3298C151.617 34.7077 151.508 35.0365 151.296 35.3113C151.084 35.5862 150.754 35.758 150.31 35.8218L151.75 37.4168L151.834 37.5542L151.824 37.564ZM148.437 33.4611V35.2034H149.901C150.202 35.2034 150.434 35.1199 150.591 34.958C150.749 34.796 150.823 34.5899 150.823 34.3494C150.823 34.1089 150.744 33.9028 150.591 33.731C150.434 33.5543 150.207 33.466 149.911 33.466H148.437V33.4611Z" fill="#F15B2D"/>
<path d="M156.794 37.564H155.892L154.427 35.9052H153.407V37.564H152.638V32.7593C152.884 32.7593 153.259 32.7593 153.762 32.7593C154.265 32.7593 154.634 32.7593 154.886 32.7593C155.418 32.7593 155.837 32.9114 156.138 33.2206C156.439 33.5298 156.587 33.8979 156.587 34.3298C156.587 34.7077 156.478 35.0365 156.266 35.3113C156.054 35.5862 155.724 35.758 155.28 35.8218L156.72 37.4168L156.804 37.5542L156.794 37.564ZM153.402 33.4611V35.2034H154.866C155.167 35.2034 155.399 35.1199 155.556 34.958C155.714 34.796 155.788 34.5899 155.788 34.3494C155.788 34.1089 155.709 33.9028 155.556 33.731C155.399 33.5543 155.172 33.466 154.876 33.466H153.402V33.4611Z" fill="#F15B2D"/>
<path d="M161.595 33.412C162.024 33.8979 162.236 34.4917 162.236 35.1837C162.236 35.5126 162.186 35.8267 162.083 36.1211C161.979 36.4156 161.831 36.6806 161.634 36.9113C161.437 37.142 161.181 37.3285 160.86 37.461C160.54 37.5935 160.175 37.6622 159.771 37.6622C159.366 37.6622 159.007 37.5935 158.681 37.4511C158.361 37.3137 158.104 37.1272 157.907 36.8917C157.71 36.661 157.562 36.396 157.458 36.1064C157.355 35.8168 157.306 35.5076 157.306 35.1837C157.306 34.4525 157.537 33.8488 158.001 33.3776C158.464 32.9065 159.061 32.666 159.785 32.666C160.564 32.666 161.171 32.9163 161.595 33.4022V33.412ZM158.173 35.8316C158.242 36.0328 158.341 36.2242 158.474 36.3911C158.607 36.5628 158.785 36.7003 159.007 36.8033C159.228 36.9064 159.48 36.9555 159.766 36.9555C160.333 36.9555 160.757 36.7886 161.038 36.45C161.319 36.1113 161.467 35.6941 161.467 35.1935C161.467 34.8844 161.412 34.5948 161.299 34.3298C161.186 34.0647 160.998 33.839 160.732 33.6525C160.471 33.466 160.15 33.3727 159.781 33.3678C159.238 33.3678 158.819 33.5347 158.518 33.8733C158.218 34.212 158.07 34.6488 158.07 35.1886C158.07 35.4095 158.109 35.6205 158.178 35.8217L158.173 35.8316Z" fill="#F15B2D"/>
<path d="M168.098 37.5689H167.418L166.777 35.8757L166.244 34.2659L165.712 35.8855L165.076 37.5738H164.401L162.65 32.769H163.513L164.741 36.4646L165.988 32.769H166.486L167.758 36.4646L168.956 32.769H169.819L168.098 37.5738V37.5689Z" fill="#F15B2D"/>
<path d="M74.4715 18.2713C73.6087 17.1719 72.465 16.4701 71.0402 16.1707C72.2973 15.7978 73.308 15.1352 74.0672 14.1831C74.8265 13.2408 75.2011 12.0384 75.2011 10.6004C75.2011 8.65195 74.4961 7.11089 73.0911 5.97228C71.6762 4.84348 69.7337 4.27417 67.2342 4.27417H56.1909V28.6955H67.6187C70.1774 28.6955 72.1741 28.0968 73.6087 26.9042C75.0434 25.7017 75.7632 24.0871 75.7632 22.0503C75.7632 20.632 75.3244 19.3805 74.4715 18.2713ZM62.1711 9.03476H66.0806C67.0567 9.03476 67.8061 9.25071 68.3385 9.69732C68.8562 10.1341 69.1175 10.7721 69.1175 11.6114C69.1175 12.4506 68.8562 13.069 68.3385 13.5058C67.8061 13.9279 67.0617 14.1487 66.0806 14.1487H62.1711V9.03476ZM68.9006 23.2184C68.3484 23.665 67.5694 23.8908 66.5687 23.8908H62.1711V18.4971H66.4996C67.5103 18.4971 68.2892 18.7474 68.8611 19.2332C69.433 19.7191 69.7239 20.3915 69.7239 21.2503C69.7239 22.1092 69.4429 22.762 68.9006 23.2184Z" fill="#014463"/>
<path d="M169.67 9.03476V4.27417H154.644V28.6955H169.67V23.9251H160.614V18.5707H169.67V13.972H160.614V9.03476H169.67Z" fill="#014463"/>
<path d="M57.2262 4.26929H56.1909V28.6955H57.2262V4.26929Z" fill="#F15B2D"/>
<path d="M155.674 4.26929H154.639V28.6955H155.674V4.26929Z" fill="#F15B2D"/>
<path d="M94.2954 4.27417V18.8799C94.2954 20.3375 93.9207 21.4663 93.1713 22.2565C92.4318 23.0417 91.362 23.4343 89.9569 23.4343C88.5519 23.4343 87.5018 23.0417 86.7721 22.2565C86.0523 21.4712 85.6924 20.3424 85.6924 18.8799V4.27417H79.7222V18.8504C79.7222 21.0246 80.1609 22.8797 81.0434 24.4012C81.9259 25.9226 83.1338 27.0514 84.6621 27.8072C86.1904 28.563 87.9159 28.936 89.8534 28.936C91.7909 28.936 93.546 28.5532 95.1138 27.7974C96.6815 27.0318 97.9436 25.8932 98.8655 24.3815C99.8022 22.8797 100.271 21.0295 100.271 18.8553V4.27417H94.2904H94.2954Z" fill="#014463"/>
<path d="M110.338 24.0969V4.27417H104.357V28.6955H118.157V24.0969H110.338Z" fill="#014463"/>
<path d="M122.062 4.27417V28.6955H128.042V4.27417H122.062Z" fill="#014463"/>
<path d="M149.694 8.06301C149.018 6.88513 148.008 5.95265 146.657 5.28027C145.306 4.6079 143.65 4.27417 141.687 4.27417H132.005V28.6955H137.985V19.9252H141.687C143.694 19.9252 145.37 19.5621 146.721 18.8504C148.072 18.1241 149.083 17.1818 149.728 16.0137C150.384 14.8456 150.714 13.55 150.714 12.1316C150.714 10.6004 150.369 9.24089 149.694 8.06301ZM143.783 14.399C143.221 14.9291 142.368 15.1941 141.234 15.1941H137.98V9.06421H141.234C142.368 9.06421 143.221 9.33414 143.783 9.874C144.345 10.404 144.626 11.1599 144.626 12.1316C144.626 13.1034 144.345 13.8592 143.783 14.399Z" fill="#014463"/>
<path d="M24.0391 33.9623V4.04297H27.4761V33.9623H24.0391Z" fill="#F15B2D" stroke="#F15B2D"/>
</svg>
